<svg width="700" height="875" viewBox="0 0 700 875" xmlns="http://www.w3.org/2000/svg">
  <defs>
    <pattern id="diag-78169" width="14" height="14" patternTransform="rotate(45)" patternUnits="userSpaceOnUse">
      <line x1="0" y1="0" x2="0" y2="14" stroke="#F4F2ED" stroke-opacity="0.04" stroke-width="6" />
    </pattern>
  </defs>
  <rect width="700" height="875" fill="#0A0A0A" />
  <rect width="700" height="875" fill="url(#diag-78169)" />
  <circle cx="468.8" cy="502.3" r="197.4" fill="#E23A24" opacity="0.14" /><circle cx="468.8" cy="502.3" r="197.4" fill="none" stroke="#E23A24" stroke-width="2" opacity="0.7" />
  <line x1="146.5" y1="601.1" x2="1023.9" y2="921.4" stroke="#E23A24" stroke-width="1.1" opacity="0.55" />
<circle cx="566.8" cy="755.1" r="155.6" fill="none" stroke="#E23A24" stroke-width="1.6" opacity="0.55" />
<line x1="638.5" y1="470.3" x2="346.3" y2="1187.9" stroke="#E23A24" stroke-width="1.4" opacity="0.55" />
<path d="M 145.3 228.6 A 267.0 267.0 0 0 1 431.0 408.9" fill="none" stroke="#E23A24" stroke-width="1.6" opacity="0.55" />
  <path d="M 252.2 99.4 A 297.3 297.3 0 1 1 792.3 348.0" fill="none" stroke="#ECE8DF" stroke-width="1.0" opacity="0.18" />
<path d="M 364.5 -79.5 A 278.1 278.1 0 0 1 414.1 460.2" fill="none" stroke="#ECE8DF" stroke-width="1.5" opacity="0.18" />
<path d="M 426.5 452.1 A 203.5 203.5 0 0 1 457.5 103.5" fill="none" stroke="#ECE8DF" stroke-width="1.0" opacity="0.18" />
<circle cx="346.9" cy="812.8" r="128.9" fill="none" stroke="#ECE8DF" stroke-width="2.3" opacity="0.18" />
<line x1="658.6" y1="372.5" x2="832.4" y2="1030.5" stroke="#ECE8DF" stroke-width="1.5" opacity="0.18" />
  <g transform="translate(56.0, 752.5)"><text font-family="Arial, Helvetica, sans-serif" font-weight="900" font-size="35.0" fill="#F4F2ED" letter-spacing="-1" transform="scale(0.9,1.08)">FJ</text></g><text x="56.0" y="813.8" font-family="Arial, Helvetica, sans-serif" font-size="19.6" fill="#8C8880" letter-spacing="1">OUTERWEAR</text>
</svg>