<svg width="700" height="875" viewBox="0 0 700 875" xmlns="http://www.w3.org/2000/svg">
  <defs>
    <pattern id="diag-11869" width="14" height="14" patternTransform="rotate(45)" patternUnits="userSpaceOnUse">
      <line x1="0" y1="0" x2="0" y2="14" stroke="#F4F2ED" stroke-opacity="0.04" stroke-width="6" />
    </pattern>
  </defs>
  <rect width="700" height="875" fill="#0A0A0A" />
  <rect width="700" height="875" fill="url(#diag-11869)" />
  <circle cx="439.3" cy="295.3" r="259.7" fill="#E23A24" opacity="0.14" /><circle cx="439.3" cy="295.3" r="259.7" fill="none" stroke="#E23A24" stroke-width="2" opacity="0.7" />
  <line x1="14.6" y1="851.3" x2="-560.7" y2="1555.2" stroke="#E23A24" stroke-width="1.0" opacity="0.55" />
<circle cx="272.7" cy="-30.1" r="125.1" fill="none" stroke="#E23A24" stroke-width="1.8" opacity="0.55" />
<path d="M 408.6 446.9 A 245.9 245.9 0 0 1 170.8 812.3" fill="none" stroke="#E23A24" stroke-width="1.0" opacity="0.55" />
<circle cx="518.5" cy="838.4" r="174.8" fill="none" stroke="#E23A24" stroke-width="1.8" opacity="0.55" />
<circle cx="527.4" cy="785.3" r="198.4" fill="none" stroke="#E23A24" stroke-width="1.9" opacity="0.55" />
  <line x1="86.6" y1="255.4" x2="660.5" y2="362.8" stroke="#ECE8DF" stroke-width="1.0" opacity="0.18" />
<line x1="607.0" y1="8.5" x2="849.9" y2="286.4" stroke="#ECE8DF" stroke-width="1.1" opacity="0.18" />
<line x1="161.2" y1="460.8" x2="653.7" y2="585.1" stroke="#ECE8DF" stroke-width="1.0" opacity="0.18" />
<line x1="605.5" y1="340.1" x2="911.6" y2="639.4" stroke="#ECE8DF" stroke-width="1.2" opacity="0.18" />
<circle cx="386.1" cy="616.3" r="222.6" fill="none" stroke="#ECE8DF" stroke-width="1.8" opacity="0.18" />
<circle cx="657.6" cy="396.0" r="125.4" fill="none" stroke="#ECE8DF" stroke-width="1.9" opacity="0.18" />
<path d="M 375.3 389.2 A 217.3 217.3 0 0 1 12.3 449.8" fill="none" stroke="#ECE8DF" stroke-width="1.6" opacity="0.18" />
  <g transform="translate(56.0, 752.5)"><text font-family="Arial, Helvetica, sans-serif" font-weight="900" font-size="35.0" fill="#F4F2ED" letter-spacing="-1" transform="scale(0.9,1.08)">RC</text></g><text x="56.0" y="813.8" font-family="Arial, Helvetica, sans-serif" font-size="19.6" fill="#8C8880" letter-spacing="1">BOTTOMS</text>
</svg>